<svg width="128" height="128" viewBox="0 0 128 128" fill="none" xmlns="http://www.w3.org/2000/svg">
<path d="M64.0003 90.667C65.5114 90.667 66.7781 90.1559 67.8003 89.1337C68.8226 88.1114 69.3337 86.8448 69.3337 85.3337C69.3337 83.8225 68.8226 82.5559 67.8003 81.5337C66.7781 80.5114 65.5114 80.0003 64.0003 80.0003C62.4892 80.0003 61.2225 80.5114 60.2003 81.5337C59.1781 82.5559 58.667 83.8225 58.667 85.3337C58.667 86.8448 59.1781 88.1114 60.2003 89.1337C61.2225 90.1559 62.4892 90.667 64.0003 90.667ZM58.667 69.3337H69.3337V37.3337H58.667V69.3337ZM64.0003 117.334C56.6226 117.334 49.6892 115.934 43.2003 113.134C36.7114 110.334 31.067 106.534 26.267 101.734C21.467 96.9337 17.667 91.2892 14.867 84.8003C12.067 78.3114 10.667 71.3781 10.667 64.0003C10.667 56.6226 12.067 49.6892 14.867 43.2003C17.667 36.7114 21.467 31.067 26.267 26.267C31.067 21.467 36.7114 17.667 43.2003 14.867C49.6892 12.067 56.6226 10.667 64.0003 10.667C71.3781 10.667 78.3114 12.067 84.8003 14.867C91.2892 17.667 96.9337 21.467 101.734 26.267C106.534 31.067 110.334 36.7114 113.134 43.2003C115.934 49.6892 117.334 56.6226 117.334 64.0003C117.334 71.3781 115.934 78.3114 113.134 84.8003C110.334 91.2892 106.534 96.9337 101.734 101.734C96.9337 106.534 91.2892 110.334 84.8003 113.134C78.3114 115.934 71.3781 117.334 64.0003 117.334Z" fill="#97B544"/>
</svg>
