<svg width="94" height="91" viewBox="0 0 94 91" fill="none" xmlns="http://www.w3.org/2000/svg">
<path d="M3.14258 39.737C3.14258 36.3507 5.03254 33.2475 8.04132 31.6937L43.3466 13.4607C45.9523 12.1149 49.0486 12.1149 51.6544 13.4607L86.9596 31.6937C89.9684 33.2475 91.8584 36.3507 91.8584 39.737V76.947C91.8584 81.9466 87.8054 85.9996 82.8057 85.9996H12.1952C7.19557 85.9996 3.14258 81.9466 3.14258 76.947V39.737Z" fill="url(#paint0_linear_432_3072)"/>
<g filter="url(#filter0_bi_432_3072)">
<rect x="11.7432" width="71.5158" height="72.8737" rx="4.52632" fill="#DBE8B6" fill-opacity="0.5"/>
<rect x="12.1507" y="0.407583" width="70.7006" height="72.0585" rx="4.11873" stroke="url(#paint1_linear_432_3072)" stroke-opacity="0.5" stroke-width="0.815166"/>
</g>
<mask id="mask0_432_3072" style="mask-type:alpha" maskUnits="userSpaceOnUse" x="3" y="12" width="89" height="74">
<path d="M3.1748 39.806C3.1748 36.4151 5.06987 33.3085 8.08495 31.7568L43.3583 13.6036C45.9579 12.2657 49.0437 12.2657 51.6433 13.6036L86.9166 31.7568C89.9317 33.3085 91.8268 36.4151 91.8268 39.806V76.7903C91.8268 81.7899 87.7738 85.8429 82.7741 85.8429H12.2274C7.22782 85.8429 3.1748 81.7899 3.1748 76.7903V39.806Z" fill="url(#paint2_linear_432_3072)"/>
</mask>
<g mask="url(#mask0_432_3072)">
<path d="M47.5008 74.9001L91.8268 34.6543V76.7898C91.8268 81.7895 87.7738 85.8425 82.7741 85.8425H12.2274C7.22781 85.8425 3.1748 81.7895 3.1748 76.7898V34.6543L47.5008 74.9001Z" fill="url(#paint3_linear_432_3072)"/>
<path d="M41.6912 53.6106L3.1748 85.8419H91.8268L53.3104 53.6106C49.9483 50.7971 45.0533 50.7971 41.6912 53.6106Z" fill="url(#paint4_linear_432_3072)"/>
</g>
<g filter="url(#filter1_d_432_3072)">
<path d="M57.0027 25.9646C56.8408 25.6153 56.2198 24.3287 54.7134 23.5903C53.9652 23.2313 53.1361 23.0583 52.3012 23.0871C49.6925 23.1228 47.9139 24.9563 47.5008 25.4047C47.0884 24.9563 45.3091 23.1259 42.7005 23.0871C41.8656 23.0583 41.0365 23.2313 40.2882 23.5903C38.7818 24.3293 38.1609 25.6153 37.999 25.9646C37.6811 26.6625 37.5259 27.4195 37.5445 28.1818C37.5445 28.4503 37.568 29.546 38.282 30.9805C39.012 32.4475 40.0441 33.3332 40.7485 33.9984C42.4706 35.6145 44.3943 37.0212 46.4612 38.1991C47.103 38.5649 47.8987 38.5649 48.5405 38.1991C50.6074 37.0212 52.531 35.6145 54.2532 33.9984C54.9544 33.3344 55.9897 32.4488 56.7203 30.9805C57.4336 29.546 57.4566 28.4503 57.4572 28.1818C57.4761 27.4194 57.3209 26.6624 57.0027 25.9646Z" fill="white"/>
</g>
<g filter="url(#filter2_f_432_3072)">
<path d="M41.6976 58.6483L12.8564 82.7392H82.1455L53.3044 58.6483C49.9444 55.8418 45.0576 55.8418 41.6976 58.6483Z" fill="url(#paint5_linear_432_3072)" fill-opacity="0.35"/>
</g>
<g filter="url(#filter3_f_432_3072)">
<path d="M26.3062 62.1889L6.74219 42.7969V78.2566L26.3062 62.1889Z" fill="url(#paint6_linear_432_3072)" fill-opacity="0.35"/>
</g>
<g filter="url(#filter4_f_432_3072)">
<path d="M68.2866 62.1889L87.8506 42.7969V78.2566L68.2866 62.1889Z" fill="url(#paint7_linear_432_3072)" fill-opacity="0.35"/>
</g>
<defs>
<filter id="filter0_bi_432_3072" x="-6.3621" y="-18.1053" width="107.726" height="109.085" filterUnits="userSpaceOnUse" color-interpolation-filters="sRGB">
<feFlood flood-opacity="0" result="BackgroundImageFix"/>
<feGaussianBlur in="BackgroundImageFix" stdDeviation="9.05263"/>
<feComposite in2="SourceAlpha" operator="in" result="effect1_backgroundBlur_432_3072"/>
<feBlend mode="normal" in="SourceGraphic" in2="effect1_backgroundBlur_432_3072" result="shape"/>
<feColorMatrix in="SourceAlpha" type="matrix" values="0 0 0 0 0 0 0 0 0 0 0 0 0 0 0 0 0 0 127 0" result="hardAlpha"/>
<feOffset dx="-4.52632" dy="4.52632"/>
<feGaussianBlur stdDeviation="4.52632"/>
<feComposite in2="hardAlpha" operator="arithmetic" k2="-1" k3="1"/>
<feColorMatrix type="matrix" values="0 0 0 0 1 0 0 0 0 1 0 0 0 0 1 0 0 0 0.5 0"/>
<feBlend mode="normal" in2="shape" result="effect2_innerShadow_432_3072"/>
</filter>
<filter id="filter1_d_432_3072" x="19.4377" y="14.0314" width="47.0739" height="42.5475" filterUnits="userSpaceOnUse" color-interpolation-filters="sRGB">
<feFlood flood-opacity="0" result="BackgroundImageFix"/>
<feColorMatrix in="SourceAlpha" type="matrix" values="0 0 0 0 0 0 0 0 0 0 0 0 0 0 0 0 0 0 127 0" result="hardAlpha"/>
<feOffset dx="-4.52632" dy="4.52632"/>
<feGaussianBlur stdDeviation="6.78947"/>
<feComposite in2="hardAlpha" operator="out"/>
<feColorMatrix type="matrix" values="0 0 0 0 0.113785 0 0 0 0 0.116181 0 0 0 0 0.120833 0 0 0 0.05 0"/>
<feBlend mode="normal" in2="BackgroundImageFix" result="effect1_dropShadow_432_3072"/>
<feBlend mode="normal" in="SourceGraphic" in2="effect1_dropShadow_432_3072" result="shape"/>
</filter>
<filter id="filter2_f_432_3072" x="4.70479" y="48.3913" width="85.5924" height="42.4996" filterUnits="userSpaceOnUse" color-interpolation-filters="sRGB">
<feFlood flood-opacity="0" result="BackgroundImageFix"/>
<feBlend mode="normal" in="SourceGraphic" in2="BackgroundImageFix" result="shape"/>
<feGaussianBlur stdDeviation="4.07583" result="effect1_foregroundBlur_432_3072"/>
</filter>
<filter id="filter3_f_432_3072" x="0.628444" y="36.6831" width="31.7919" height="47.6874" filterUnits="userSpaceOnUse" color-interpolation-filters="sRGB">
<feFlood flood-opacity="0" result="BackgroundImageFix"/>
<feBlend mode="normal" in="SourceGraphic" in2="BackgroundImageFix" result="shape"/>
<feGaussianBlur stdDeviation="3.05687" result="effect1_foregroundBlur_432_3072"/>
</filter>
<filter id="filter4_f_432_3072" x="62.1724" y="36.6831" width="31.7919" height="47.6874" filterUnits="userSpaceOnUse" color-interpolation-filters="sRGB">
<feFlood flood-opacity="0" result="BackgroundImageFix"/>
<feBlend mode="normal" in="SourceGraphic" in2="BackgroundImageFix" result="shape"/>
<feGaussianBlur stdDeviation="3.05687" result="effect1_foregroundBlur_432_3072"/>
</filter>
<linearGradient id="paint0_linear_432_3072" x1="77.7786" y1="13.9207" x2="20.6142" y2="68.5599" gradientUnits="userSpaceOnUse">
<stop stop-color="#97B544"/>
<stop offset="1" stop-color="#97B544"/>
</linearGradient>
<linearGradient id="paint1_linear_432_3072" x1="11.7432" y1="0" x2="67.6432" y2="55.9" gradientUnits="userSpaceOnUse">
<stop stop-color="#DBE8B6"/>
<stop offset="1" stop-color="#DBE8B6" stop-opacity="0.5"/>
</linearGradient>
<linearGradient id="paint2_linear_432_3072" x1="91.9274" y1="33.2186" x2="1.0289" y2="82.2052" gradientUnits="userSpaceOnUse">
<stop stop-color="#FF0000"/>
<stop offset="1" stop-color="#DA0024"/>
</linearGradient>
<linearGradient id="paint3_linear_432_3072" x1="3.0743" y1="34.6448" x2="107.619" y2="95.7822" gradientUnits="userSpaceOnUse">
<stop stop-color="#97B544"/>
<stop offset="1" stop-color="#97B544"/>
</linearGradient>
<linearGradient id="paint4_linear_432_3072" x1="47.5008" y1="51.7627" x2="47.5008" y2="102.099" gradientUnits="userSpaceOnUse">
<stop stop-color="#97B544"/>
<stop offset="1" stop-color="#97B544"/>
</linearGradient>
<linearGradient id="paint5_linear_432_3072" x1="47.356" y1="56.6539" x2="47.356" y2="82.7392" gradientUnits="userSpaceOnUse">
<stop stop-color="#FFD500"/>
<stop offset="1" stop-color="white" stop-opacity="0"/>
<stop offset="1" stop-color="#FFD500" stop-opacity="0"/>
</linearGradient>
<linearGradient id="paint6_linear_432_3072" x1="6.74219" y1="42.7969" x2="26.7138" y2="62.7684" gradientUnits="userSpaceOnUse">
<stop stop-color="#FFD500"/>
<stop offset="1" stop-color="#FFD500" stop-opacity="0"/>
</linearGradient>
<linearGradient id="paint7_linear_432_3072" x1="87.8506" y1="42.7969" x2="67.879" y2="62.7684" gradientUnits="userSpaceOnUse">
<stop stop-color="#FFD500"/>
<stop offset="1" stop-color="#FFD500" stop-opacity="0"/>
</linearGradient>
</defs>
</svg>
