<svg width="315" viewBox="0 0 315 312" fill="none" xmlns="http://www.w3.org/2000/svg">
<path d="M21.3112 135.871C-14.1451 183.199 0.973802 243.505 33.0995 278.338C54.6845 301.746 88.5516 318.712 129.522 307.888C139.689 305.202 146.937 303.021 152.647 301.246C169.954 295.981 173.131 295.035 200.08 298.286C235.974 302.612 269.344 289.691 293.269 264.204C314.779 241.273 319.478 199.964 308.709 170.286C303.005 154.572 302.683 147.619 302.32 139.717C302.004 129.488 300.372 119.34 297.465 109.516C288.57 76.784 273.066 58.54 258.59 44.0766C244.139 29.6065 228.878 15.5371 193.408 4.51378C164.313 -4.54159 115.153 0.421209 83.4272 30.6355C60.2 52.8198 50.2426 70.0058 41.2261 101.499C37.8118 113.411 33.242 119.976 21.3112 135.871ZM241.799 143.469C247.715 165.238 244.618 188.433 233.189 207.95C221.759 227.467 202.934 241.709 180.854 247.542C158.774 253.375 135.249 250.321 115.452 239.053C95.6562 227.785 81.211 209.225 75.2948 187.456C69.3785 165.687 72.4757 142.492 83.9051 122.975C95.3344 103.458 114.16 89.2159 136.24 83.383C158.319 77.55 181.845 80.6036 201.641 91.872C221.438 103.14 235.883 121.701 241.799 143.469Z" fill="#e5e5e5"/>
</svg>
